<?xml version="1.0" encoding="UTF-8" standalone="no"?>
<svg
   xmlns:dc="http://purl.org/dc/elements/1.1/"
   xmlns:cc="http://creativecommons.org/ns#"
   xmlns:rdf="http://www.w3.org/1999/02/22-rdf-syntax-ns#"
   xmlns:svg="http://www.w3.org/2000/svg"
   xmlns="http://www.w3.org/2000/svg"
   xmlns:xlink="http://www.w3.org/1999/xlink"
   xmlns:sodipodi="http://sodipodi.sourceforge.net/DTD/sodipodi-0.dtd"
   xmlns:inkscape="http://www.inkscape.org/namespaces/inkscape"
   version="1.1"
   viewBox="0 0 690 720"
   stroke-miterlimit="10"
   id="svg4221"
   inkscape:version="0.91 r13725"
   sodipodi:docname="favicon.svg"
   width="690"
   height="720"
   style="fill:none;stroke:none;stroke-linecap:square;stroke-miterlimit:10">
  <metadata
     id="metadata4266">
    <rdf:RDF>
      <cc:Work
         rdf:about="">
        <dc:format>image/svg+xml</dc:format>
        <dc:type
           rdf:resource="http://purl.org/dc/dcmitype/StillImage" />
        <dc:title></dc:title>
      </cc:Work>
    </rdf:RDF>
  </metadata>
  <defs
     id="defs4264">
    <linearGradient
       inkscape:collect="always"
       id="linearGradient4307">
      <stop
         style="stop-color:#ccff00;stop-opacity:1;"
         offset="0"
         id="stop4309" />
      <stop
         style="stop-color:#0000ff;stop-opacity:1"
         offset="1"
         id="stop4311" />
    </linearGradient>
    <linearGradient
       inkscape:collect="always"
       xlink:href="#linearGradient4307"
       id="linearGradient4313"
       x1="66.976761"
       y1="76.544868"
       x2="653.82056"
       y2="667.37543"
       gradientUnits="userSpaceOnUse" />
  </defs>
  <sodipodi:namedview
     pagecolor="#ffffff"
     bordercolor="#666666"
     borderopacity="1"
     objecttolerance="10"
     gridtolerance="10"
     guidetolerance="10"
     inkscape:pageopacity="1"
     inkscape:pageshadow="2"
     inkscape:window-width="1920"
     inkscape:window-height="1056"
     id="namedview4262"
     showgrid="false"
     inkscape:zoom="1.2541667"
     inkscape:cx="472.82392"
     inkscape:cy="357.78111"
     inkscape:window-x="0"
     inkscape:window-y="24"
     inkscape:window-maximized="1"
     inkscape:current-layer="svg4221"
     fit-margin-top="0"
     fit-margin-left="0"
     fit-margin-right="0"
     fit-margin-bottom="0"
     borderlayer="true" />
  <clipPath
     id="p.0">
    <path
       d="M 0,0 960,0 960,720 0,720 0,0 Z"
       id="path4224"
       inkscape:connector-curvature="0"
       style="clip-rule:nonzero" />
  </clipPath>
  <g
     clip-path="url(#p.0)"
     id="g4226">
    <path
       d="m 0,0 960,0 0,720 -960,0 z"
       id="path4228"
       inkscape:connector-curvature="0"
       style="fill:#000000;fill-opacity:0;fill-rule:evenodd" />
    <path
       d="M 653.03937,252.52376 C 639.72968,223.75823 628.56561,56.53163 573.18109,79.93059 517.79657,103.32954 362.80709,340.75301 320.73227,392.91747"
       id="path4230"
       inkscape:connector-curvature="0"
       style="fill:#000000;fill-opacity:0;fill-rule:evenodd" />
    <path
       d="M 653.03937,252.52376 C 639.72968,223.75823 628.56561,56.53163 573.18109,79.93059 517.79657,103.32954 362.80709,340.75301 320.73227,392.91747"
       id="path4232"
       inkscape:connector-curvature="0"
       style="fill-rule:evenodd;stroke:#000000;stroke-width:1;stroke-linecap:butt;stroke-linejoin:round" />
    <path
       d="m 320.73227,392.91864 c 34.34689,-3.86395 171.7345,-19.31976 206.08139,-23.18375"
       id="path4234"
       inkscape:connector-curvature="0"
       style="fill:#000000;fill-opacity:0;fill-rule:evenodd" />
    <path
       d="m 320.73227,392.91864 c 34.34689,-3.86395 171.7345,-19.31976 206.08139,-23.18375"
       id="path4236"
       inkscape:connector-curvature="0"
       style="fill-rule:evenodd;stroke:#000000;stroke-width:1;stroke-linecap:butt;stroke-linejoin:round" />
    <path
       d="m 526.81433,369.7349 c -1.28833,24.47201 -8.15881,105.83029 -7.72968,146.83206 0.42914,41.00171 8.58704,82.64868 10.30445,99.17847"
       id="path4238"
       inkscape:connector-curvature="0"
       style="fill:#000000;fill-opacity:0;fill-rule:evenodd" />
    <path
       d="m 526.81433,369.7349 c -1.28833,24.47201 -8.15881,105.83029 -7.72968,146.83206 0.42914,41.00171 8.58704,82.64868 10.30445,99.17847"
       id="path4240"
       inkscape:connector-curvature="0"
       style="fill-rule:evenodd;stroke:#000000;stroke-width:1;stroke-linecap:butt;stroke-linejoin:round" />
    <path
       d="M 529.3884,615.74506 C 486.02533,603.29407 350.78388,544.04431 269.20993,541.03907 187.63602,538.03382 78.1557,588.26783 39.94485,597.71357"
       id="path4242"
       inkscape:connector-curvature="0"
       style="fill:#000000;fill-opacity:0;fill-rule:evenodd" />
    <path
       d="M 529.3884,615.74506 C 486.02533,603.29407 350.78388,544.04431 269.20993,541.03907 187.63602,538.03382 78.1557,588.26783 39.94485,597.71357"
       id="path4244"
       inkscape:connector-curvature="0"
       style="fill-rule:evenodd;stroke:#000000;stroke-width:1;stroke-linecap:butt;stroke-linejoin:round" />
    <path
       d="m 39.94488,597.7128 c 37.1378,-4.93744 133.95407,-41.64612 222.82678,-29.62469 88.87268,12.02148 258.6745,84.79443 310.40942,101.75329"
       id="path4246"
       inkscape:connector-curvature="0"
       style="fill:#000000;fill-opacity:0;fill-rule:evenodd" />
    <path
       d="m 39.94488,597.7128 c 37.1378,-4.93744 133.95407,-41.64612 222.82678,-29.62469 88.87268,12.02148 258.6745,84.79443 310.40942,101.75329"
       id="path4248"
       inkscape:connector-curvature="0"
       style="fill-rule:evenodd;stroke:#000000;stroke-width:1;stroke-linecap:butt;stroke-linejoin:round" />
    <path
       d="m 573.18134,669.8425 c -4.29309,-27.47772 -23.39722,-108.19336 -25.75855,-164.86615 -2.36132,-56.67279 9.65882,-145.9755 11.59058,-175.1706"
       id="path4250"
       inkscape:connector-curvature="0"
       style="fill:#000000;fill-opacity:0;fill-rule:evenodd" />
    <path
       d="m 573.18134,669.8425 c -4.29309,-27.47772 -23.39722,-108.19336 -25.75855,-164.86615 -2.36132,-56.67279 9.65882,-145.9755 11.59058,-175.1706"
       id="path4252"
       inkscape:connector-curvature="0"
       style="fill-rule:evenodd;stroke:#000000;stroke-width:1;stroke-linecap:butt;stroke-linejoin:round" />
    <path
       d="m 559.0131,329.8058 c -24.68677,2.57611 -123.43396,12.88055 -148.12073,15.4567"
       id="path4254"
       inkscape:connector-curvature="0"
       style="fill:#000000;fill-opacity:0;fill-rule:evenodd" />
    <path
       d="m 559.0131,329.8058 c -24.68677,2.57611 -123.43396,12.88055 -148.12073,15.4567"
       id="path4256"
       inkscape:connector-curvature="0"
       style="fill-rule:evenodd;stroke:#000000;stroke-width:1;stroke-linecap:butt;stroke-linejoin:round" />
    <path
       d="m 410.8924,345.26343 c 29.40945,-37.99652 135.88452,-213.38145 176.45667,-227.979 40.5722,-14.59755 55.81366,116.99476 66.97638,140.3937"
       id="path4258"
       inkscape:connector-curvature="0"
       style="fill:#000000;fill-opacity:0;fill-rule:evenodd" />
    <path
       d="m 410.8924,345.26343 c 29.40945,-37.99652 135.88452,-213.38145 176.45667,-227.979 40.5722,-14.59755 55.81366,116.99476 66.97638,140.3937"
       id="path4260"
       inkscape:connector-curvature="0"
       style="fill-rule:evenodd;stroke:#000000;stroke-width:1;stroke-linecap:butt;stroke-linejoin:round" />
  </g>
  <g
     id="g4317">
    <path
       inkscape:connector-curvature="0"
       id="path4268"
       d="m 565.95349,666.51803 c -2.41196,-0.90825 -14.25249,-5.35015 -26.31229,-9.87087 -12.0598,-4.52073 -35.74087,-13.47437 -52.62459,-19.897 -92.36001,-35.13403 -153.40644,-55.09384 -197.74086,-64.6536 -57.84316,-12.47263 -107.03124,-9.27141 -197.503274,12.85373 -13.462929,3.2924 -24.795766,5.88027 -25.184082,5.75083 -0.835252,-0.27842 37.021236,-13.58967 62.158816,-21.85653 70.38112,-23.14588 118.97825,-30.70063 161.33464,-25.08056 42.61246,5.65405 88.08059,18.84644 181.78526,52.74426 47.28939,17.10701 57.14846,20.44291 57.97507,19.61631 0.26493,-0.26494 -1.01746,-11.15949 -2.84975,-24.21013 -8.84714,-63.01413 -9.00251,-76.63571 -2.05696,-180.33609 1.51007,-22.54618 2.74559,-41.29369 2.74559,-41.66113 0,-0.36744 -0.9349,-0.66808 -2.07755,-0.66808 -1.14265,0 -46.92593,5.04729 -101.74062,11.21619 -54.81469,6.1689 -99.81204,11.06722 -99.99411,10.88515 -0.18207,-0.18207 3.91895,-6.03667 9.11336,-13.01021 5.19442,-6.97354 26.48284,-36.53964 47.3076,-65.70243 66.22339,-92.73857 93.59566,-129.23024 125.89655,-167.84053 30.3246,-36.24796 50.95175,-56.009215 65.97007,-63.200728 11.10203,-5.316206 20.06943,-3.369281 29.40464,6.384081 4.99913,5.223061 9.82104,12.816287 13.91945,21.919457 5.69876,12.65779 13.15436,37.39396 18.26874,60.61204 2.63718,11.97216 2.91205,17.09228 0.41382,7.70828 -2.35768,-8.85608 -8.97091,-27.56992 -12.30597,-34.82295 -6.11765,-13.30457 -14.43258,-23.72292 -21.18512,-26.54431 -4.28366,-1.78983 -11.30595,-1.46734 -15.98089,0.7339 -18.45713,8.69072 -49.84869,45.80008 -100.58378,118.90458 -3.95654,5.701 -19.51533,28.66446 -34.57508,51.0299 -15.05976,22.36545 -30.00916,44.32078 -33.22089,48.78963 -3.21173,4.46884 -5.83952,8.53906 -5.83952,9.04491 0,0.63259 1.18251,0.77094 3.78738,0.44311 13.93038,-1.75316 143.15397,-14.85789 143.46309,-14.54877 0.21149,0.21149 -1.25468,17.1899 -3.25815,37.72982 -6.67592,68.44286 -7.85714,86.07283 -7.8978,117.87685 -0.0316,24.69471 0.50381,32.88711 3.88195,59.402 2.90591,22.80835 11.07975,68.94461 21.01286,118.60465 0.79121,3.95563 0.68705,3.98691 -5.5076,1.65424 z"
       style="fill:url(#linearGradient4313);fill-opacity:1;stroke:none;stroke-width:1px;stroke-linecap:butt;stroke-linejoin:miter;stroke-opacity:1" />
  </g>
</svg>
