<?xml version="1.0" encoding="utf-8"?>
<!-- Generator: Adobe Illustrator 22.1.0, SVG Export Plug-In . SVG Version: 6.00 Build 0)  -->
<svg version="1.1" id="Layer_1" xmlns="http://www.w3.org/2000/svg" xmlns:xlink="http://www.w3.org/1999/xlink" x="0px" y="0px"
	 width="300px" height="66.71px" viewBox="0 0 300 66.71" style="enable-background:new 0 0 300 66.71;" xml:space="preserve">
<style type="text/css">
	.st0{fill:#41007F;}
	.st1{fill:#00A7E1;}
	.st2{fill:#FFFFFF;}
</style>
<path class="st0" d="M89.47,60.85h44.89v5.64H89.47c-0.01,0-0.03,0-0.04,0c-4.06-0.01-7.33-3.31-7.32-7.37V0.1h5.66v59.02
	c0,0.01,0,0.02,0,0.03C87.78,60.09,88.54,60.85,89.47,60.85z M63.11,0.1h-7.18L8.67,60.41c-0.39,0.55-1.11,0.76-1.73,0.5
	c-0.63-0.2-1.05-0.8-1.03-1.46V0.1H0.25v59.35c-0.04,3.09,1.93,5.84,4.86,6.8c0.77,0.26,1.58,0.4,2.4,0.4c2.2,0,4.28-1.01,5.62-2.76
	l22.56-28.81l24.46,31.4h7.32L39.29,30.51L63.11,0.1z M210.3,66.49h6.26L187.5,4.32c-1.69-3.68-6.05-5.28-9.72-3.59
	c-1.58,0.73-2.86,2-3.59,3.59l-29.05,62.18h6.28l27.93-59.75c0.27-0.58,0.86-0.95,1.5-0.93c0.64-0.03,1.24,0.34,1.5,0.93
	L210.3,66.49z"/>
<path class="st1" d="M233.19,0.1h66.56v66.39h-66.56V0.1z"/>
<path class="st2" d="M294.76,30.18H269.6V5.08h-6.26v25.1h-25.16v6.24h25.16v25.1h6.26v-25.1h25.16
	C294.76,36.42,294.76,30.18,294.76,30.18z"/>
</svg>
